<svg width="100" height="100" viewBox="0 0 100 100" xmlns="http://www.w3.org/2000/svg">
  <!-- Background circle -->
  <circle cx="50" cy="50" r="45" fill="#2D5016" stroke="#4A7C20" stroke-width="2"/>
  
  <!-- Spoon shape -->
  <ellipse cx="50" cy="35" rx="8" ry="12" fill="#F5F5F5"/>
  <rect x="46" y="47" width="8" height="25" rx="4" fill="#F5F5F5"/>
  
  <!-- Pub glass/mug accent -->
  <rect x="65" y="45" width="12" height="18" rx="2" fill="#FFB84D" stroke="#E6A643" stroke-width="1"/>
  <rect x="67" y="47" width="8" height="2" fill="#FFF" opacity="0.3"/>
  
  <!-- Beer foam -->
  <ellipse cx="71" cy="44" rx="6" ry="2" fill="#FFF"/>
  
  <!-- Carpet pattern accent -->
  <g opacity="0.3">
    <rect x="25" y="70" width="4" height="4" fill="#8B4513"/>
    <rect x="31" y="70" width="4" height="4" fill="#A0522D"/>
    <rect x="37" y="70" width="4" height="4" fill="#8B4513"/>
    <rect x="25" y="76" width="4" height="4" fill="#A0522D"/>
    <rect x="31" y="76" width="4" height="4" fill="#8B4513"/>
    <rect x="37" y="76" width="4" height="4" fill="#A0522D"/>
  </g>
  
  <!-- Gaming/points star -->
  <polygon points="82,25 84,31 90,31 85,35 87,41 82,37 77,41 79,35 74,31 80,31" fill="#FFD700"/>
</svg>